<svg width="31.000000" height="31.000000" viewBox="0 0 31 31" fill="none" xmlns="http://www.w3.org/2000/svg" xmlns:xlink="http://www.w3.org/1999/xlink">
	<desc>
			Created with Pixso.
	</desc>
	<defs>
		<clipPath id="clip20_73">
			<rect id="bi:arrow-right" width="16.000000" height="16.000000" transform="translate(7.000000 8.000000)" fill="white" fill-opacity="0"/>
		</clipPath>
	</defs>
	<circle id="Ellipse 3" cx="15.500000" cy="15.500000" r="15.500000" fill="#FFFFFF" fill-opacity="1.000000"/>
	<rect id="bi:arrow-right" width="16.000000" height="16.000000" transform="translate(7.000000 8.000000)" fill="#FFFFFF" fill-opacity="0"/>
	<g clip-path="url(#clip20_73)">
		<path id="Vector" d="M8 16C8 15.86 8.05 15.74 8.14 15.64C8.24 15.55 8.36 15.5 8.5 15.5L20.29 15.5L17.14 12.35C17.05 12.26 16.99 12.13 16.99 12C16.99 11.86 17.05 11.73 17.14 11.64C17.23 11.55 17.36 11.49 17.5 11.49C17.63 11.49 17.76 11.55 17.85 11.64L21.85 15.64C21.9 15.69 21.93 15.74 21.96 15.8C21.98 15.86 22 15.93 22 16C22 16.06 21.98 16.13 21.96 16.19C21.93 16.25 21.9 16.3 21.85 16.35L17.85 20.35C17.76 20.44 17.63 20.5 17.5 20.5C17.36 20.5 17.23 20.44 17.14 20.35C17.05 20.26 16.99 20.13 16.99 20C16.99 19.86 17.05 19.73 17.14 19.64L20.29 16.5L8.5 16.5C8.36 16.5 8.24 16.44 8.14 16.35C8.05 16.25 8 16.13 8 16Z" fill="#037E8C" fill-opacity="1.000000" fill-rule="evenodd"/>
	</g>
</svg>
