<svg width="22.000000" height="22.000000" viewBox="0 0 22 22" fill="none" xmlns="http://www.w3.org/2000/svg" xmlns:xlink="http://www.w3.org/1999/xlink">
	<desc>
			Created with Pixso.
	</desc>
	<defs>
		<clipPath id="clip26_783">
			<rect id="bi:calendar-event" width="22.000000" height="22.000000" fill="white" fill-opacity="0"/>
		</clipPath>
	</defs>
	<rect id="bi:calendar-event" width="22.000000" height="22.000000" fill="#FFFFFF" fill-opacity="0"/>
	<g clip-path="url(#clip26_783)">
		<path id="Vector" d="M15.12 8.93C15.12 8.75 15.19 8.58 15.32 8.45C15.45 8.32 15.63 8.25 15.81 8.25L17.18 8.25C17.36 8.25 17.54 8.32 17.67 8.45C17.8 8.58 17.87 8.75 17.87 8.93L17.87 10.31C17.87 10.49 17.8 10.66 17.67 10.79C17.54 10.92 17.36 11 17.18 11L15.81 11C15.63 11 15.45 10.92 15.32 10.79C15.19 10.66 15.12 10.49 15.12 10.31L15.12 8.93Z" fill="#037E8C" fill-opacity="1.000000" fill-rule="nonzero"/>
		<path id="Vector" d="M4.81 0C4.99 0 5.16 0.07 5.29 0.2C5.42 0.33 5.5 0.5 5.5 0.68L5.5 1.37L16.5 1.37L16.5 0.68C16.5 0.5 16.57 0.33 16.7 0.2C16.83 0.07 17 0 17.18 0C17.36 0 17.54 0.07 17.67 0.2C17.8 0.33 17.87 0.5 17.87 0.68L17.87 1.37L19.25 1.37C19.97 1.37 20.67 1.66 21.19 2.18C21.71 2.69 22 3.39 22 4.12L22 19.25C22 19.97 21.71 20.67 21.19 21.19C20.67 21.71 19.97 22 19.25 22L2.75 22C2.02 22 1.32 21.71 0.8 21.19C0.28 20.67 0 19.97 0 19.25L0 4.12C0 3.39 0.28 2.69 0.8 2.18C1.32 1.66 2.02 1.37 2.75 1.37L4.12 1.37L4.12 0.68C4.12 0.5 4.19 0.33 4.32 0.2C4.45 0.07 4.63 0 4.81 0L4.81 0ZM1.37 5.5L1.37 19.25C1.37 19.61 1.51 19.96 1.77 20.22C2.03 20.48 2.38 20.62 2.75 20.62L19.25 20.62C19.61 20.62 19.96 20.48 20.22 20.22C20.48 19.96 20.62 19.61 20.62 19.25L20.62 5.5L1.37 5.5Z" fill="#037E8C" fill-opacity="1.000000" fill-rule="nonzero"/>
	</g>
</svg>
