<svg width="94.000000" height="94.000000" viewBox="0 0 94 94" fill="none" xmlns="http://www.w3.org/2000/svg" xmlns:xlink="http://www.w3.org/1999/xlink">
	<desc>
			Created with Pixso.
	</desc>
	<defs>
		<clipPath id="clip23_2921">
			<rect id="gridicons:chat" width="94.000000" height="94.000000" fill="white" fill-opacity="0"/>
		</clipPath>
	</defs>
	<rect id="gridicons:chat" width="94.000000" height="94.000000" fill="#FFFFFF" fill-opacity="0"/>
	<g clip-path="url(#clip23_2921)">
		<path id="Vector" d="M11.75 47C7.44 47 3.91 43.47 3.91 39.16L3.91 19.58C3.91 15.27 7.44 11.75 11.75 11.75L43.08 11.75C47.39 11.75 50.91 15.27 50.91 19.58L50.91 39.16C50.91 43.47 47.39 47 43.08 47L35.25 47L35.25 58.75L23.5 47L11.75 47ZM82.25 70.5C86.55 70.5 90.08 66.97 90.08 62.66L90.08 43.08C90.08 38.77 86.55 35.25 82.25 35.25L58.75 35.25L58.75 39.16C58.75 47.78 51.7 54.83 43.08 54.83L43.08 62.66C43.08 66.97 46.6 70.5 50.91 70.5L58.75 70.5L58.75 82.25L70.49 70.5L82.25 70.5Z" fill="#121214" fill-opacity="1.000000" fill-rule="nonzero"/>
	</g>
</svg>
