<svg width="42.000000" height="42.000000" viewBox="0 0 42 42" fill="none" xmlns="http://www.w3.org/2000/svg" xmlns:xlink="http://www.w3.org/1999/xlink">
	<desc>
			Created with Pixso.
	</desc>
	<defs/>
	<path id="Vector 5" d="M0 21C0 9.4 9.4 0 21 0C32.59 0 42 9.4 42 21C42 32.59 32.59 42 21 42C9.4 42 0 32.59 0 21Z" fill="#037E8C" fill-opacity="1.000000" fill-rule="evenodd"/>
	<path id="Vector 5" d="M31.06 13.93C31.34 14.22 31.49 14.6 31.49 14.99C31.49 15.39 31.34 15.77 31.06 16.06L19.06 28.06C18.77 28.34 18.39 28.49 18 28.49C17.6 28.49 17.22 28.34 16.93 28.06L10.93 22.06C10.66 21.77 10.51 21.39 10.51 21C10.52 20.61 10.67 20.23 10.95 19.95C11.23 19.67 11.61 19.52 12 19.51C12.39 19.51 12.77 19.66 13.06 19.93L18 24.87L28.93 13.93C29.22 13.65 29.6 13.5 30 13.5C30.39 13.5 30.77 13.65 31.06 13.93Z" fill="#FFFFFF" fill-opacity="1.000000" fill-rule="evenodd"/>
</svg>
