<svg width="47.000000" height="47.000000" viewBox="0 0 47 47" fill="none" xmlns="http://www.w3.org/2000/svg" xmlns:xlink="http://www.w3.org/1999/xlink">
	<desc>
			Created with Pixso.
	</desc>
	<defs/>
	<path id="Vector 2" d="M46 23.5C46 35.91 35.91 46 23.5 46C11.08 46 1 35.91 1 23.5C1 11.08 11.08 1 23.5 1C35.91 1 46 11.08 46 23.5Z" fill="#037E8C" fill-opacity="1.000000" fill-rule="evenodd"/>
	<path id="Vector 2" d="M23.5 46C11.08 46 1 35.91 1 23.5C1 11.08 11.08 1 23.5 1C35.91 1 46 11.08 46 23.5C46 35.91 35.91 46 23.5 46ZM24 35.58C17.09 35.58 11.5 30.17 11.5 23.5C11.5 16.82 17.09 11.41 24 11.41C30.9 11.41 36.5 16.82 36.5 23.5C36.5 30.17 30.9 35.58 24 35.58ZM27.75 28.33L24.73 25.41C24.26 24.96 24 24.34 24 23.7L24 16.25" stroke="#FFFFFF" stroke-opacity="1.000000" stroke-width="2.000000" stroke-linejoin="round"/>
</svg>
