<svg width="45.000000" height="45.000000" viewBox="0 0 45 45" fill="none" xmlns="http://www.w3.org/2000/svg" xmlns:xlink="http://www.w3.org/1999/xlink">
	<desc>
			Created with Pixso.
	</desc>
	<defs/>
	<path id="Vector 4" d="M0 22.5C0 10.07 10.07 0 22.5 0C34.92 0 45 10.07 45 22.5C45 34.92 34.92 45 22.5 45C10.07 45 0 34.92 0 22.5Z" fill="#037E8C" fill-opacity="1.000000" fill-rule="evenodd"/>
	<path id="Vector 4" d="M33.42 20.95C33.42 20.95 33.42 20.95 33.42 20.95L24.04 11.57C23.64 11.17 23.11 10.95 22.54 10.95C21.97 10.95 21.44 11.17 21.04 11.57L11.67 20.95C11.66 20.95 11.66 20.95 11.66 20.96C10.83 21.78 10.84 23.12 11.66 23.95C12.04 24.32 12.53 24.54 13.06 24.56C13.09 24.57 13.11 24.57 13.13 24.57L13.5 24.57L13.5 31.47C13.5 32.84 14.62 33.95 15.98 33.95L19.65 33.95C20.02 33.95 20.33 33.65 20.33 33.28L20.33 27.86C20.33 27.24 20.83 26.73 21.46 26.73L23.62 26.73C24.25 26.73 24.75 27.24 24.75 27.86L24.75 33.28C24.75 33.65 25.05 33.95 25.43 33.95L29.1 33.95C30.46 33.95 31.58 32.84 31.58 31.47L31.58 24.57L31.92 24.57C32.49 24.57 33.02 24.35 33.42 23.95C34.24 23.12 34.24 21.78 33.42 20.95ZM32.47 22.99C32.32 23.14 32.13 23.22 31.92 23.22L30.9 23.22C30.53 23.22 30.23 23.52 30.23 23.89L30.23 31.47C30.23 32.1 29.72 32.6 29.1 32.6L26.1 32.6L26.1 27.86C26.1 26.5 24.99 25.39 23.62 25.39L21.46 25.39C20.09 25.39 18.98 26.5 18.98 27.86L18.98 32.6L15.98 32.6C15.36 32.6 14.85 32.1 14.85 31.47L14.85 23.89C14.85 23.52 14.55 23.22 14.18 23.22L13.17 23.22C13.16 23.22 13.15 23.22 13.14 23.22C12.94 23.22 12.75 23.14 12.61 22.99C12.31 22.69 12.31 22.21 12.61 21.91C12.61 21.91 12.61 21.91 12.61 21.91L12.61 21.9L22 12.52C22.14 12.38 22.33 12.3 22.54 12.3C22.75 12.3 22.94 12.38 23.08 12.52L32.46 21.9C32.47 21.9 32.47 21.91 32.47 21.91C32.77 22.21 32.77 22.69 32.47 22.99Z" fill="#FFFFFF" fill-opacity="1.000000" fill-rule="nonzero"/>
</svg>
