<svg width="17.000000" height="17.000000" viewBox="0 0 17 17" fill="none" xmlns="http://www.w3.org/2000/svg" xmlns:xlink="http://www.w3.org/1999/xlink">
	<desc>
			Created with Pixso.
	</desc>
	<defs>
		<clipPath id="clip23_2533">
			<rect id="bx:bxs-map" width="17.000000" height="17.000000" transform="translate(-0.000061 0.000000)" fill="white" fill-opacity="0"/>
		</clipPath>
	</defs>
	<rect id="bx:bxs-map" width="17.000000" height="17.000000" transform="translate(-0.000061 0.000000)" fill="#FFFFFF" fill-opacity="0"/>
	<g clip-path="url(#clip23_2533)">
		<path id="Vector" d="M8.49 1.41C5.37 1.41 2.83 3.95 2.83 7.07C2.81 11.64 8.28 15.43 8.49 15.58C8.49 15.58 14.18 11.64 14.16 7.08C14.16 3.95 11.62 1.41 8.49 1.41ZM8.49 9.91C6.93 9.91 5.66 8.64 5.66 7.08C5.66 5.51 6.93 4.25 8.49 4.25C10.06 4.25 11.33 5.51 11.33 7.08C11.33 8.64 10.06 9.91 8.49 9.91Z" fill="#037E8C" fill-opacity="1.000000" fill-rule="nonzero"/>
	</g>
</svg>
