<svg width="18.000000" height="18.000000" viewBox="0 0 18 18" fill="none" xmlns="http://www.w3.org/2000/svg" xmlns:xlink="http://www.w3.org/1999/xlink">
	<desc>
			Created with Pixso.
	</desc>
	<defs>
		<clipPath id="clip26_791">
			<rect id="clarity:phone-handset-solid" width="18.000000" height="18.000000" fill="white" fill-opacity="0"/>
		</clipPath>
	</defs>
	<rect id="clarity:phone-handset-solid" width="18.000000" height="18.000000" fill="#FFFFFF" fill-opacity="0"/>
	<g clip-path="url(#clip26_791)">
		<path id="Vector" d="M7.61 10.31C8.65 11.37 9.91 12.19 11.31 12.71L13.19 11.21C13.25 11.17 13.31 11.15 13.38 11.15C13.45 11.15 13.51 11.17 13.57 11.21L17.07 13.47C17.2 13.54 17.32 13.65 17.4 13.79C17.48 13.92 17.53 14.06 17.55 14.22C17.57 14.37 17.55 14.53 17.49 14.67C17.44 14.82 17.35 14.95 17.24 15.05L15.6 16.67C15.36 16.91 15.07 17.08 14.76 17.17C14.44 17.26 14.1 17.28 13.78 17.21C10.56 16.54 7.58 14.98 5.21 12.71C2.88 10.41 1.27 7.49 0.57 4.3C0.5 3.98 0.52 3.65 0.61 3.34C0.71 3.02 0.88 2.74 1.12 2.52L2.82 0.88C2.93 0.77 3.05 0.69 3.2 0.64C3.34 0.59 3.49 0.57 3.64 0.58C3.79 0.6 3.93 0.65 4.06 0.73C4.19 0.81 4.3 0.91 4.38 1.04L6.71 4.5C6.75 4.55 6.77 4.62 6.77 4.68C6.77 4.75 6.75 4.82 6.71 4.87L5.18 6.71C5.71 8.08 6.54 9.31 7.61 10.31Z" fill="#037E8C" fill-opacity="1.000000" fill-rule="nonzero"/>
	</g>
</svg>
