<svg width="45.000000" height="45.000000" viewBox="0 0 45 45" fill="none" xmlns="http://www.w3.org/2000/svg" xmlns:xlink="http://www.w3.org/1999/xlink">
	<desc>
			Created with Pixso.
	</desc>
	<defs/>
	<path id="Vector 3" d="M0 22.5C0 10.07 10.07 0 22.5 0C34.92 0 45 10.07 45 22.5C45 34.92 34.92 45 22.5 45C10.07 45 0 34.92 0 22.5Z" fill="#037E8C" fill-opacity="1.000000" fill-rule="evenodd"/>
	<path id="Vector 3" d="M27.53 34C26.78 34 26.05 33.86 25.33 33.6C22.16 32.45 19.21 30.57 16.81 28.18C14.42 25.78 12.54 22.83 11.39 19.66C11.02 18.64 10.91 17.59 11.06 16.54C11.21 15.55 11.59 14.59 12.17 13.76C12.75 12.93 13.53 12.24 14.42 11.76C15.36 11.25 16.39 11 17.48 11C17.82 11 18.11 11.23 18.19 11.56L19.31 16.83C19.36 17.07 19.29 17.31 19.12 17.49L17.19 19.41C19.01 23.03 21.96 25.98 25.58 27.8L27.5 25.87C27.68 25.7 27.92 25.63 28.16 25.68L33.43 26.8C33.76 26.88 34 27.17 34 27.51C34 28.6 33.74 29.63 33.23 30.57C32.75 31.46 32.06 32.24 31.23 32.82C30.4 33.4 29.44 33.78 28.45 33.93C28.14 33.97 27.83 34 27.53 34ZM16.91 12.46C15.47 12.62 14.2 13.38 13.35 14.58C12.4 15.94 12.17 17.62 12.74 19.17C14.95 25.27 19.72 30.04 25.82 32.25C27.37 32.82 29.05 32.59 30.41 31.64C31.61 30.79 32.37 29.52 32.53 28.08L28.24 27.16L26.23 29.18C26.02 29.39 25.69 29.45 25.42 29.32C21.14 27.31 17.68 23.85 15.67 19.57C15.54 19.3 15.6 18.97 15.81 18.76L17.83 16.75L16.91 12.46Z" fill="#FFFFFF" fill-opacity="1.000000" fill-rule="nonzero"/>
</svg>
