<svg width="17.000000" height="17.000000" viewBox="0 0 17 17" fill="none" xmlns="http://www.w3.org/2000/svg" xmlns:xlink="http://www.w3.org/1999/xlink">
	<desc>
			Created with Pixso.
	</desc>
	<defs>
		<clipPath id="clip20_63">
			<rect id="phone" width="17.000000" height="17.000000" fill="white" fill-opacity="0"/>
		</clipPath>
	</defs>
	<rect id="phone" width="17.000000" height="17.000000" fill="#FFFFFF" fill-opacity="0"/>
	<g clip-path="url(#clip20_63)">
		<path id="Vector" d="M7.18 9.74C8.17 10.74 9.36 11.51 10.68 12L12.46 10.59C12.51 10.55 12.57 10.53 12.64 10.53C12.7 10.53 12.76 10.55 12.82 10.59L16.12 12.72C16.25 12.79 16.35 12.9 16.43 13.02C16.51 13.14 16.56 13.28 16.57 13.43C16.59 13.57 16.57 13.72 16.52 13.86C16.47 14 16.38 14.12 16.28 14.22L14.73 15.75C14.51 15.97 14.23 16.13 13.93 16.22C13.64 16.3 13.32 16.32 13.01 16.25C9.97 15.62 7.16 14.15 4.92 12C2.72 9.83 1.2 7.07 0.54 4.06C0.47 3.76 0.49 3.44 0.58 3.15C0.67 2.86 0.83 2.59 1.06 2.38L2.66 0.83C2.76 0.73 2.88 0.65 3.02 0.6C3.15 0.55 3.29 0.54 3.44 0.55C3.58 0.56 3.71 0.61 3.84 0.69C3.96 0.76 4.06 0.86 4.14 0.98L6.34 4.25C6.37 4.3 6.4 4.36 6.4 4.42C6.4 4.49 6.37 4.55 6.34 4.6L4.89 6.34C5.39 7.63 6.17 8.79 7.18 9.74Z" fill="#FFFFFF" fill-opacity="1.000000" fill-rule="nonzero"/>
	</g>
</svg>
