<svg width="24.000000" height="24.000000" viewBox="0 0 24 24" fill="none" xmlns="http://www.w3.org/2000/svg" xmlns:xlink="http://www.w3.org/1999/xlink">
	<desc>
			Created with Pixso.
	</desc>
	<defs>
		<clipPath id="clip23_2540">
			<rect id="иконка" width="24.000000" height="24.000000" transform="translate(-0.000061 0.000000)" fill="white" fill-opacity="0"/>
		</clipPath>
	</defs>
	<rect id="иконка" width="24.000000" height="24.000000" transform="translate(-0.000061 0.000000)" fill="#FFFFFF" fill-opacity="0"/>
	<g clip-path="url(#clip23_2540)">
		<path id="Vector" d="M6.01 4.5C5.62 4.5 5.23 4.57 4.87 4.72C4.51 4.87 4.18 5.09 3.9 5.37C3.63 5.64 3.41 5.97 3.26 6.33C3.11 6.7 3.03 7.08 3.03 7.47C3.03 9.71 6.01 13.01 6.01 13.01C6.01 13.01 8.99 9.71 8.99 7.47C8.99 7.08 8.91 6.7 8.76 6.33C8.61 5.97 8.39 5.64 8.12 5.37C7.84 5.09 7.51 4.87 7.15 4.72C6.79 4.57 6.4 4.5 6.01 4.5ZM6.01 8.54C5.8 8.54 5.6 8.48 5.42 8.36C5.25 8.24 5.11 8.08 5.03 7.88C4.95 7.69 4.93 7.47 4.97 7.27C5.01 7.06 5.11 6.87 5.26 6.72C5.41 6.57 5.6 6.47 5.8 6.43C6.01 6.39 6.22 6.41 6.42 6.49C6.61 6.57 6.78 6.71 6.89 6.88C7.01 7.06 7.07 7.26 7.07 7.47C7.07 7.76 6.96 8.03 6.76 8.23C6.56 8.43 6.29 8.54 6.01 8.54Z" fill="#121214" fill-opacity="1.000000" fill-rule="nonzero"/>
		<path id="Vector" d="M21.02 11.29L21.02 6.99C21.01 6.54 20.94 6.09 20.81 5.66C20.49 4.51 19.76 3.52 18.77 2.87C17.77 2.21 16.58 1.93 15.4 2.08C14.22 2.22 13.12 2.79 12.32 3.67C11.52 4.55 11.06 5.68 11.02 6.87L11.02 7.12L11.01 7.99L11.01 17.94L11 17.94L11 17.99C11 18.52 10.79 19.02 10.42 19.4C10.04 19.77 9.54 19.99 9 19.99C8.47 19.99 7.97 19.77 7.59 19.4C7.22 19.02 7 18.52 7 17.99C7 17.97 7.01 17.96 7.01 17.95L7 17.95L7 16.01L5 16.01L5 18.01L5.01 18.01C5.01 19.07 5.43 20.08 6.18 20.83C6.93 21.58 7.95 22 9.01 22C10.07 22 11.08 21.58 11.83 20.83C12.58 20.08 13 19.06 13 18L13 18L13 17.02L13.01 17.02L13.01 8.99L13.02 7.12L13.02 6.88C13.05 6.09 13.39 5.34 13.96 4.8C14.53 4.26 15.29 3.97 16.08 3.98C16.87 4 17.62 4.32 18.17 4.89C18.72 5.45 19.02 6.21 19.02 7L19.02 11.27C18.64 11.49 18.34 11.83 18.16 12.23C17.99 12.64 17.96 13.09 18.07 13.51C18.18 13.94 18.43 14.32 18.77 14.59C19.12 14.86 19.55 15.01 19.99 15.01C20.43 15.02 20.86 14.87 21.21 14.61C21.56 14.35 21.81 13.97 21.93 13.55C22.05 13.12 22.02 12.67 21.86 12.26C21.69 11.86 21.4 11.51 21.02 11.29L21.02 11.29Z" fill="#121214" fill-opacity="1.000000" fill-rule="nonzero"/>
	</g>
</svg>
