<svg width="17.000000" height="17.000000" viewBox="0 0 17 17" fill="none" xmlns="http://www.w3.org/2000/svg" xmlns:xlink="http://www.w3.org/1999/xlink">
	<desc>
			Created with Pixso.
	</desc>
	<defs>
		<clipPath id="clip23_2537">
			<rect id="ant-design:star-filled" width="17.000000" height="17.000000" transform="translate(-0.000061 0.000000)" fill="white" fill-opacity="0"/>
		</clipPath>
	</defs>
	<rect id="ant-design:star-filled" width="17.000000" height="17.000000" transform="translate(-0.000061 0.000000)" fill="#FFFFFF" fill-opacity="0"/>
	<g clip-path="url(#clip23_2537)">
		<path id="Vector" d="M15.07 5.86L10.86 5.24L8.97 1.42C8.92 1.32 8.84 1.24 8.73 1.18C8.47 1.05 8.15 1.16 8.02 1.42L6.13 5.24L1.92 5.86C1.8 5.87 1.7 5.93 1.62 6.01C1.52 6.11 1.46 6.25 1.46 6.39C1.47 6.53 1.52 6.67 1.63 6.76L4.67 9.74L3.95 13.94C3.94 14.03 3.95 14.13 3.99 14.23C4.02 14.32 4.09 14.4 4.17 14.46C4.25 14.51 4.34 14.55 4.44 14.55C4.54 14.56 4.64 14.54 4.72 14.49L8.49 12.51L12.27 14.49C12.37 14.55 12.49 14.57 12.6 14.55C12.89 14.5 13.09 14.22 13.04 13.94L12.31 9.74L15.36 6.76C15.45 6.68 15.5 6.58 15.52 6.46C15.56 6.17 15.36 5.9 15.07 5.86Z" fill="#037E8C" fill-opacity="1.000000" fill-rule="nonzero"/>
	</g>
</svg>
