<svg width="58.000000" height="45.000000" viewBox="0 0 58 45" fill="none" xmlns="http://www.w3.org/2000/svg" xmlns:xlink="http://www.w3.org/1999/xlink">
	<desc>
			Created with Pixso.
	</desc>
	<defs/>
	<circle id="Ellipse 8" cx="35.500000" cy="22.500000" r="22.500000" fill="#037E8C" fill-opacity="1.000000"/>
	<path id="Vector" d="M17.99 17C17.99 23.17 14.49 28.26 9.99 28.92L9.99 38L25.99 38L25.99 29.04L21.27 29.04C20.53 29.04 19.81 28.79 19.24 28.34C18.66 27.88 18.25 27.24 18.08 26.52C17.91 25.8 17.99 25.05 18.3 24.38C18.61 23.72 19.14 23.17 19.8 22.84C19.51 21.86 19.59 20.81 20.04 19.89C20.49 18.97 21.26 18.25 22.21 17.87C22.04 17.15 22.04 16.41 22.21 15.69C22.37 14.97 22.69 14.29 23.15 13.72C23.61 13.14 24.2 12.67 24.86 12.35C25.53 12.03 26.26 11.86 26.99 11.86C27.73 11.86 28.46 12.03 29.13 12.35C29.79 12.67 30.37 13.14 30.83 13.72C31.29 14.29 31.62 14.97 31.78 15.69C31.94 16.41 31.94 17.15 31.78 17.87C32.73 18.25 33.5 18.97 33.95 19.89C34.39 20.81 34.48 21.86 34.19 22.84C34.85 23.17 35.38 23.72 35.69 24.38C36 25.05 36.08 25.8 35.91 26.52C35.74 27.24 35.33 27.88 34.75 28.34C34.17 28.79 33.46 29.04 32.72 29.04L27.99 29.04L27.99 38L34.49 38C34.89 38 35.27 38.15 35.55 38.43C35.84 38.72 35.99 39.1 35.99 39.5C35.99 39.89 35.84 40.27 35.55 40.56C35.27 40.84 34.89 41 34.49 41L1.49 41C1.1 41 0.72 40.84 0.43 40.56C0.15 40.27 0 39.89 0 39.5C0 39.1 0.15 38.72 0.43 38.43C0.72 38.15 1.1 38 1.49 38L7.99 38L7.99 28.92C3.49 28.26 0 23.17 0 17C0 10.37 4.02 5 8.99 5C13.96 5 17.99 10.37 17.99 17Z" fill="#121214" fill-opacity="1.000000" fill-rule="evenodd"/>
</svg>
