<svg width="52.000000" height="45.000000" viewBox="0 0 52 45" fill="none" xmlns="http://www.w3.org/2000/svg" xmlns:xlink="http://www.w3.org/1999/xlink">
	<desc>
			Created with Pixso.
	</desc>
	<defs/>
	<circle id="Ellipse 8" cx="29.500000" cy="22.500000" r="22.500000" fill="#037E8C" fill-opacity="1.000000"/>
	<path id="Vector" d="M-0.61 21.4C-1.01 26.2 0.39 30.2 3.39 33.8C6.39 37.4 10.4 39 15.2 39L35.2 39C36.2 39 37.2 38.59 38 37.8C38.79 37 39.2 36 39.2 35L39.2 33.4C39.2 32.2 39 30.8 38.79 29L22.39 29C20.39 29 18.79 28.2 17.4 26.8C16 25.4 15.2 23.6 15.2 21.8C15.2 18.6 16.6 16.4 19.6 15.2L29.2 11C25.79 8.6 21.79 7.2 17.2 7C12.8 6.6 8.79 8 5.19 10.8C1.59 13.6 -0.21 17 -0.61 21.4ZM19.2 21.8C19.2 22.6 19.6 23.4 20.2 24C20.79 24.6 21.6 25 22.39 25L38 25C36.79 20.6 35 17 32.4 14.2L21.2 18.79C19.79 19.2 19.2 20.2 19.2 21.8Z" fill="#121214" fill-opacity="1.000000" fill-rule="nonzero"/>
</svg>
