<svg width="45.000000" height="45.000000" viewBox="0 0 45 45" fill="none" xmlns="http://www.w3.org/2000/svg" xmlns:xlink="http://www.w3.org/1999/xlink">
	<desc>
			Created with Pixso.
	</desc>
	<defs/>
	<path id="Vector 2" d="M0 22.5C0 10.07 10.07 0 22.5 0C34.92 0 45 10.07 45 22.5C45 34.92 34.92 45 22.5 45C10.07 45 0 34.92 0 22.5Z" fill="#037E8C" fill-opacity="1.000000" fill-rule="evenodd"/>
	<path id="Vector 2" d="M32.8 12.97L12.19 12.97C10.98 12.97 10 13.96 10 15.17L10 29.82C10 31.03 10.98 32.02 12.19 32.02L32.8 32.02C34 32.02 35 31.03 35 29.82L35 15.17C35 13.96 34.01 12.97 32.8 12.97ZM32.49 14.44L22.54 24.39L12.5 14.44L32.49 14.44ZM11.46 29.52L11.46 15.47L18.51 22.46L11.46 29.52ZM12.5 30.55L19.55 23.49L22.03 25.94C22.31 26.23 22.78 26.23 23.06 25.94L25.47 23.53L32.49 30.55L12.5 30.55ZM33.53 29.52L26.51 22.5L33.53 15.47L33.53 29.52Z" fill="#FFFFFF" fill-opacity="1.000000" fill-rule="nonzero"/>
</svg>
